<?xml version="1.0" standalone="no"?>
<!DOCTYPE svg PUBLIC "-//W3C//DTD SVG 20010904//EN"
 "http://www.w3.org/TR/2001/REC-SVG-20010904/DTD/svg10.dtd">
<svg version="1.0" xmlns="http://www.w3.org/2000/svg"
 width="160.000000pt" height="48.000000pt" viewBox="0 0 160.000000 48.000000"
 preserveAspectRatio="xMidYMid meet">

<g transform="translate(0.000000,48.000000) scale(0.100000,-0.100000)"
fill="#000000" stroke="none">
<path d="M400 240 c0 -91 3 -110 15 -110 11 0 15 12 15 50 l0 50 45 0 c33 0
45 4 45 15 0 11 -12 15 -45 15 -43 0 -45 1 -45 30 0 30 1 30 55 30 42 0 55 3
55 15 0 12 -14 15 -70 15 l-70 0 0 -110z"/>
<path d="M730 240 c0 -91 3 -110 15 -110 12 0 15 19 15 110 0 91 -3 110 -15
110 -12 0 -15 -19 -15 -110z"/>
<path d="M800 240 c0 -67 4 -110 10 -110 6 0 10 43 10 110 0 67 -4 110 -10
110 -6 0 -10 -43 -10 -110z"/>
<path d="M591 274 c-29 -36 -28 -97 1 -124 25 -23 49 -25 81 -9 31 17 37 28
37 72 0 75 -77 114 -119 61z m83 -36 c16 -45 -3 -83 -39 -83 -28 0 -30 3 -33
44 -4 59 2 73 35 69 20 -2 30 -11 37 -30z"/>
<path d="M875 275 c-30 -29 -34 -94 -9 -119 23 -23 59 -29 86 -15 32 17 38 28
38 72 0 43 -35 87 -70 87 -11 0 -32 -11 -45 -25z m79 -37 c20 -57 -29 -115
-61 -72 -16 22 -17 58 -2 85 15 29 51 21 63 -13z"/>
<path d="M1004 278 c4 -13 9 -39 12 -58 8 -53 25 -90 40 -90 12 0 19 19 40
105 6 26 8 27 15 10 4 -11 8 -34 8 -52 1 -41 10 -63 26 -63 13 0 22 18 49 104
19 60 20 66 2 66 -8 0 -20 -26 -32 -71 l-18 -71 -13 48 c-7 27 -13 59 -13 72
0 12 -6 22 -15 22 -13 0 -18 -12 -42 -109 -8 -33 -9 -32 -27 38 -10 39 -23 71
-28 71 -6 0 -7 -10 -4 -22z"/>
</g>
</svg>
